<svg width="260" height="48" viewBox="0 0 260 48" fill="none" xmlns="http://www.w3.org/2000/svg" xmlns:xlink="http://www.w3.org/1999/xlink">
  <g clip-path="url(#clip0_17_74)">
    <g clip-path="url(#clip1_17_74)">
      <path class="text-path" d="M74.5414 25.8672L73.7211 34.5391L57.2758 35.8281C57.3539 31.2839 57.4385 26.7656 57.5297 22.2734C57.6339 17.7812 57.7576 13.263 57.9008 8.71875H68.057C67.7576 11.5703 67.4711 14.4219 67.1977 17.2734C66.9242 20.112 66.7289 22.9766 66.6117 25.8672C67.2237 25.8932 67.8292 25.9062 68.4281 25.9062C69.0271 25.9062 69.6326 25.9062 70.2445 25.9062C70.9737 25.9062 71.6898 25.8997 72.393 25.8867C73.0961 25.8737 73.8122 25.8672 74.5414 25.8672ZM98.8406 9.5C98.2547 14.0833 97.7534 18.6471 97.3367 23.1914C96.9201 27.7227 96.5229 32.2865 96.1453 36.8828L88.1375 37.4688L88.4891 34.4609C88.2286 34.7604 87.9227 35.0208 87.5711 35.2422C87.2326 35.4635 86.868 35.6458 86.4773 35.7891C86.0867 35.9193 85.6831 36.0169 85.2664 36.082C84.8497 36.1341 84.4526 36.1536 84.075 36.1406C83.1896 36.1276 82.3562 35.9583 81.575 35.6328C80.7937 35.2943 80.0776 34.8516 79.4266 34.3047C78.7755 33.7448 78.1896 33.1003 77.6687 32.3711C77.1479 31.6289 76.7052 30.8542 76.3406 30.0469C75.9891 29.2266 75.7156 28.3932 75.5203 27.5469C75.338 26.7005 75.2469 25.8802 75.2469 25.0859C75.2469 23.9141 75.2664 22.7031 75.3055 21.4531C75.3576 20.1901 75.4422 18.9271 75.5594 17.6641C75.6766 16.401 75.8263 15.151 76.0086 13.9141C76.2039 12.6771 76.4448 11.4922 76.7312 10.3594C78.3198 10.4375 79.9148 10.5091 81.5164 10.5742C83.118 10.6393 84.713 10.6589 86.3016 10.6328C86.0021 11.7656 85.7026 12.9049 85.4031 14.0508C85.1167 15.1836 84.8562 16.3294 84.6219 17.4883C84.3875 18.6341 84.1987 19.7865 84.0555 20.9453C83.9122 22.1042 83.8406 23.276 83.8406 24.4609C83.8406 24.7344 83.8536 25.125 83.8797 25.6328C83.9057 26.1406 83.9708 26.6419 84.075 27.1367C84.1922 27.6315 84.3615 28.0677 84.5828 28.4453C84.8172 28.8099 85.1427 28.9922 85.5594 28.9922C86.0542 28.9922 86.4969 28.7839 86.8875 28.3672C87.2781 27.9375 87.6232 27.3646 87.9227 26.6484C88.2221 25.9323 88.476 25.1055 88.6844 24.168C88.9057 23.2305 89.088 22.2539 89.2312 21.2383C89.3875 20.2096 89.5112 19.1745 89.6023 18.1328C89.6935 17.0911 89.7586 16.1146 89.7977 15.2031C89.8497 14.2786 89.8823 13.4518 89.8953 12.7227C89.9214 11.9935 89.9344 11.4271 89.9344 11.0234C89.9344 10.763 89.9279 10.5091 89.9148 10.2617C89.9018 10.0143 89.8823 9.76042 89.8562 9.5C90.7026 9.52604 91.5424 9.54557 92.3758 9.55859C93.2091 9.57161 94.049 9.57812 94.8953 9.57812C95.5464 9.57812 96.1974 9.57812 96.8484 9.57812C97.5125 9.5651 98.1766 9.53906 98.8406 9.5ZM118.394 10.3203L117.691 18.5625C117.313 18.4583 116.942 18.3867 116.577 18.3477C116.213 18.3086 115.842 18.2891 115.464 18.2891C114.54 18.2891 113.654 18.4062 112.808 18.6406C111.974 18.875 111.232 19.2331 110.581 19.7148C109.943 20.1966 109.429 20.8086 109.038 21.5508C108.661 22.2799 108.472 23.1458 108.472 24.1484C108.472 24.8776 108.576 25.5156 108.784 26.0625C109.006 26.5964 109.312 27.0456 109.702 27.4102C110.106 27.7617 110.588 28.0286 111.148 28.2109C111.721 28.3932 112.352 28.4844 113.042 28.4844C113.524 28.4844 114.019 28.4388 114.527 28.3477C115.034 28.2435 115.542 28.1068 116.05 27.9375C116.558 27.7682 117.046 27.5729 117.515 27.3516C117.984 27.1302 118.42 26.8958 118.823 26.6484L118.511 35.8281C118.003 36.0885 117.456 36.3229 116.87 36.5312C116.284 36.7266 115.679 36.8958 115.054 37.0391C114.442 37.1953 113.823 37.3125 113.198 37.3906C112.586 37.4688 112.001 37.5078 111.441 37.5078C109.592 37.5078 107.905 37.1628 106.382 36.4727C104.872 35.7826 103.57 34.8451 102.476 33.6602C101.395 32.4622 100.555 31.0755 99.9562 29.5C99.3573 27.9245 99.0578 26.2448 99.0578 24.4609C99.0578 22.3255 99.3573 20.3333 99.9562 18.4844C100.568 16.6354 101.46 15.0339 102.632 13.6797C103.817 12.3125 105.275 11.2448 107.007 10.4766C108.752 9.69531 110.751 9.30469 113.003 9.30469C113.902 9.30469 114.813 9.3763 115.737 9.51953C116.662 9.66276 117.547 9.92969 118.394 10.3203ZM144.373 11.7656L135.74 22.0391L143.67 35.4766L134.607 37.0781L128.67 29.0312L128.357 36.6875L120.232 37L120.857 9.03125L129.959 9.53906L129.255 17.5859L134.92 9.42188L144.373 11.7656ZM165.254 9.46094L165.059 17.7422L159.238 17.9766L158.535 36.1016L150.293 36.5312L149.551 18.4062L143.73 18.7188L143.965 9.5L165.254 9.46094ZM187.463 9.46094L187.268 17.7422L181.448 17.9766L180.745 36.1016L172.502 36.5312L171.76 18.4062L165.94 18.7188L166.174 9.5L187.463 9.46094ZM210.083 21.2188C210.083 22.3516 210.005 23.4844 209.848 24.6172C207.622 24.7604 205.408 24.9948 203.208 25.3203C201.007 25.6328 198.807 25.9453 196.606 26.2578C196.945 27.1953 197.472 27.944 198.188 28.5039C198.917 29.0638 199.783 29.3438 200.786 29.3438C201.307 29.3438 201.873 29.2461 202.485 29.0508C203.11 28.8555 203.729 28.6146 204.341 28.3281C204.953 28.0286 205.539 27.7096 206.098 27.3711C206.658 27.0326 207.14 26.7266 207.544 26.4531L206.606 35.3203C206.098 35.7109 205.545 36.043 204.946 36.3164C204.36 36.5898 203.748 36.8112 203.11 36.9805C202.472 37.1497 201.828 37.2734 201.177 37.3516C200.526 37.4297 199.888 37.4688 199.263 37.4688C197.973 37.4688 196.795 37.293 195.727 36.9414C194.66 36.5898 193.69 36.1016 192.817 35.4766C191.958 34.8385 191.203 34.0898 190.552 33.2305C189.901 32.3711 189.36 31.4336 188.93 30.418C188.501 29.4023 188.175 28.3281 187.954 27.1953C187.733 26.0625 187.622 24.9167 187.622 23.7578C187.622 22.5469 187.733 21.3359 187.954 20.125C188.175 18.9141 188.507 17.7487 188.95 16.6289C189.406 15.5091 189.972 14.474 190.649 13.5234C191.339 12.5599 192.14 11.7201 193.052 11.0039C193.963 10.2878 194.992 9.72786 196.138 9.32422C197.296 8.92057 198.572 8.71875 199.966 8.71875C201.124 8.71875 202.179 8.88151 203.13 9.20703C204.093 9.51953 204.946 9.96224 205.688 10.5352C206.444 11.0951 207.095 11.7656 207.641 12.5469C208.201 13.3281 208.657 14.1875 209.009 15.125C209.373 16.0495 209.64 17.0326 209.809 18.0742C209.992 19.1029 210.083 20.151 210.083 21.2188ZM202.27 20.2031C202.27 19.8385 202.231 19.4674 202.153 19.0898C202.075 18.6992 201.945 18.3477 201.763 18.0352C201.593 17.7227 201.365 17.4688 201.079 17.2734C200.792 17.0651 200.434 16.9609 200.005 16.9609C199.484 16.9609 199.022 17.1042 198.618 17.3906C198.227 17.6641 197.889 18.0156 197.602 18.4453C197.316 18.862 197.082 19.3177 196.899 19.8125C196.717 20.3073 196.58 20.763 196.489 21.1797L202.27 20.6328V20.2031ZM234.362 18.1719C234.362 19.1875 234.271 20.112 234.089 20.9453C233.92 21.7656 233.646 22.5208 233.269 23.2109C232.891 23.901 232.403 24.5391 231.804 25.125C231.205 25.7109 230.482 26.2708 229.636 26.8047L234.284 35.0859L225.495 36.8047L222.487 28.4844L220.066 28.5625L219.714 36.6875H211.316C211.381 33.7188 211.439 30.763 211.491 27.8203C211.556 24.8776 211.628 21.9219 211.706 18.9531C211.732 17.4557 211.758 15.9714 211.784 14.5C211.81 13.0286 211.862 11.5443 211.941 10.0469C212.852 9.70833 213.751 9.42839 214.636 9.20703C215.521 8.98568 216.407 8.81641 217.292 8.69922C218.191 8.56901 219.096 8.48438 220.007 8.44531C220.931 8.39323 221.876 8.36719 222.839 8.36719C224.323 8.36719 225.756 8.57552 227.136 8.99219C228.529 9.39583 229.76 10.0078 230.827 10.8281C231.895 11.6484 232.748 12.6706 233.386 13.8945C234.037 15.1185 234.362 16.5443 234.362 18.1719ZM225.612 18.7969C225.612 18.25 225.534 17.7487 225.378 17.293C225.235 16.8372 225.014 16.4466 224.714 16.1211C224.428 15.7826 224.063 15.5221 223.62 15.3398C223.191 15.1445 222.683 15.0469 222.097 15.0469C221.836 15.0469 221.583 15.0664 221.335 15.1055C221.088 15.1315 220.847 15.1771 220.612 15.2422L220.3 22.5078H220.769C221.329 22.5078 221.895 22.4362 222.468 22.293C223.054 22.1497 223.575 21.9284 224.03 21.6289C224.499 21.3294 224.877 20.9453 225.163 20.4766C225.463 20.0078 225.612 19.4479 225.612 18.7969ZM259.482 10.5547L250.302 25.5547L250.576 36.6094H240.537L240.771 25.6328L233.623 11.1406L243.584 9.89062L246.709 18.3281L250.107 9.89062L259.482 10.5547Z" />
    </g>
    <rect width="48" height="48" fill="url(#pattern0_17_74)"/>
  </g>
  <defs>
    <pattern id="pattern0_17_74" patternContentUnits="objectBoundingBox" width="1" height="1">
      <use xlink:href="#image0_17_74" transform="scale(0.00195312)"/>
    </pattern>
    <clipPath id="clip0_17_74">
      <rect width="260" height="48" fill="white"/>
    </clipPath>
    <clipPath id="clip1_17_74">
      <rect width="204" height="31" fill="white" transform="translate(56 8)"/>
    </clipPath>
    <svg id="image0_17_74" width="512" height="512" viewBox="0 0 39 39" xmlns="http://www.w3.org/2000/svg">
      <defs>
        <linearGradient id="firstQuadrant" x1="0%" y1="0%" x2="100%" y2="0%">
          <stop offset="50%" style="stop-color:darkorange;stop-opacity:1" />
          <stop offset="50%" style="stop-color:orange;stop-opacity:1" />
        </linearGradient>
        <linearGradient id="secondQuadrant" x1="0%" y1="0%" x2="100%" y2="0%">
          <stop offset="50%" style="stop-color:dodgerblue;stop-opacity:1" />
          <stop offset="50%" style="stop-color:deepskyblue;stop-opacity:1" />
        </linearGradient>
        <linearGradient id="thirdQuadrant" x1="0%" y1="0%" x2="100%" y2="0%">
          <stop offset="50%" style="stop-color:darkred;stop-opacity:1" />
          <stop offset="50%" style="stop-color:red;stop-opacity:1" />
        </linearGradient>
        <linearGradient id="fourthQuadrant" x1="0%" y1="0%" x2="100%" y2="0%">
          <stop offset="50%" style="stop-color:Forestgreen;stop-opacity:1" />
          <stop offset="50%" style="stop-color:Limegreen;stop-opacity:1" />
        </linearGradient>
      </defs>
    
      <path fill="url(#firstQuadrant)" transform="rotate(-45 12 12)" d="M12 21.35l-1.45-1.32C5.4 15.36 2 12.28 2 8.5 2 5.42 4.42 3 7.5 3c1.74 0 3.41.81 4.5 2.09C13.09 3.81 14.76 3 16.5 3 19.58 3 22 5.42 22 8.5c0 3.78-3.4 6.86-8.55 11.54L12 21.35z"/>
    
      <path fill="url(#secondQuadrant)" transform="translate(15, 0) rotate(45 12 12)" d="M12 21.35l-1.45-1.32C5.4 15.36 2 12.28 2 8.5 2 5.42 4.42 3 7.5 3c1.74 0 3.41.81 4.5 2.09C13.09 3.81 14.76 3 16.5 3 19.58 3 22 5.42 22 8.5c0 3.78-3.4 6.86-8.55 11.54L12 21.35z"/>
      <path fill="url(#thirdQuadrant)" transform="translate(15, 15) rotate(135 12 12)" d="M12 21.35l-1.45-1.32C5.4 15.36 2 12.28 2 8.5 2 5.42 4.42 3 7.5 3c1.74 0 3.41.81 4.5 2.09C13.09 3.81 14.76 3 16.5 3 19.58 3 22 5.42 22 8.5c0 3.78-3.4 6.86-8.55 11.54L12 21.35z"/>
      <path fill="url(#fourthQuadrant)" transform="translate(0, 15) rotate(-135 12 12)" d="M12 21.35l-1.45-1.32C5.4 15.36 2 12.28 2 8.5 2 5.42 4.42 3 7.5 3c1.74 0 3.41.81 4.5 2.09C13.09 3.81 14.76 3 16.5 3 19.58 3 22 5.42 22 8.5c0 3.78-3.4 6.86-8.55 11.54L12 21.35z"/>
    </svg>
  </defs>
  <style>
    .text-path {
      fill: black;
    }

    @media (prefers-color-scheme: dark) {
      .text-path {
        fill: white;
      }
    }
  </style>
</svg>
